<svg preserveAspectRatio="none" width="100%" height="100%" overflow="visible" style="display: block;" viewBox="0 0 77 14" fill="none" xmlns="http://www.w3.org/2000/svg">
<g id="Rating">
<path id="Star 8" d="M7 0L8.5716 4.83688H13.6574L9.5429 7.82624L11.1145 12.6631L7 9.67376L2.8855 12.6631L4.4571 7.82624L0.342604 4.83688H5.4284L7 0Z" fill="var(--fill-0, #FFEA02)"/>
<path id="Star 9" d="M7 0L8.5716 4.83688H13.6574L9.5429 7.82624L11.1145 12.6631L7 9.67376L2.8855 12.6631L4.4571 7.82624L0.342604 4.83688H5.4284L7 0Z" fill="var(--fill-0, #FFEA02)"/>
<path id="Star 10" d="M24 0L25.5716 4.83688H30.6574L26.5429 7.82624L28.1145 12.6631L24 9.67376L19.8855 12.6631L21.4571 7.82624L17.3426 4.83688H22.4284L24 0Z" fill="var(--fill-0, #FFEA02)"/>
<path id="Star 11" d="M41 0L42.5716 4.83688H47.6574L43.5429 7.82624L45.1145 12.6631L41 9.67376L36.8855 12.6631L38.4571 7.82624L34.3426 4.83688H39.4284L41 0Z" fill="var(--fill-0, #FFEA02)"/>
<path id="Star 12" d="M56 0L57.5716 4.83688H62.6574L58.5429 7.82624L60.1145 12.6631L56 9.67376L51.8855 12.6631L53.4571 7.82624L49.3426 4.83688H54.4284L56 0Z" fill="var(--fill-0, #FFEA02)"/>
<path id="Star 13" d="M70 0L71.5716 4.83688H76.6574L72.5429 7.82624L74.1145 12.6631L70 9.67376L65.8855 12.6631L67.4571 7.82624L63.3426 4.83688H68.4284L70 0Z" fill="var(--fill-0, #FFEA02)"/>
</g>
</svg>
