<svg preserveAspectRatio="none" width="100%" height="100%" overflow="visible" style="display: block;" viewBox="0 0 103.976 128.718" fill="none" xmlns="http://www.w3.org/2000/svg">
<path id="Star 1" d="M50.0422 1.53708C50.5298 -0.512361 53.446 -0.512358 53.9336 1.53708L64.6958 46.7714C64.8478 47.4104 65.3038 47.9339 65.9158 48.1722L102.701 62.4955C104.401 63.1571 104.401 65.5613 102.701 66.2229L65.9158 80.5462C65.3038 80.7845 64.8478 81.3081 64.6958 81.947L53.9336 127.181C53.446 129.231 50.5298 129.231 50.0422 127.181L39.28 81.947C39.128 81.3081 38.6719 80.7845 38.06 80.5462L1.27433 66.2229C-0.424775 65.5613 -0.424775 63.1571 1.27433 62.4955L38.06 48.1722C38.672 47.9339 39.128 47.4104 39.28 46.7714L50.0422 1.53708Z" fill="var(--fill-0, #C5FF7D)"/>
</svg>
