<svg preserveAspectRatio="none" width="100%" height="100%" overflow="visible" style="display: block;" viewBox="0 0 56.0474 67.4047" fill="none" xmlns="http://www.w3.org/2000/svg">
<path id="Star 2" d="M26.078 1.53708C26.5656 -0.512358 29.4818 -0.512361 29.9694 1.53708L35.1397 23.2682C35.2917 23.9071 35.7477 24.4307 36.3597 24.669L54.7731 31.8387C56.4722 32.5002 56.4722 34.9045 54.7731 35.5661L36.3597 42.7357C35.7477 42.974 35.2917 43.4976 35.1397 44.1365L29.9694 65.8676C29.4818 67.9171 26.5656 67.9171 26.078 65.8677L20.9077 44.1365C20.7557 43.4976 20.2997 42.974 19.6877 42.7357L1.27433 35.5661C-0.424775 34.9045 -0.424776 32.5002 1.27433 31.8387L19.6877 24.669C20.2997 24.4307 20.7557 23.9071 20.9077 23.2682L26.078 1.53708Z" fill="var(--fill-0, #C5FF7D)"/>
</svg>
