<svg preserveAspectRatio="none" width="100%" height="100%" overflow="visible" style="display: block;" viewBox="0 0 85 17.1717" fill="none" xmlns="http://www.w3.org/2000/svg">
<g id="Stars">
<path id="Star 3" d="M8.58586 1.78814e-05L10.5135 5.9327H16.7515L11.7049 9.5993L13.6325 15.532L8.58586 11.8654L3.53922 15.532L5.46686 9.5993L0.420222 5.9327H6.65821L8.58586 1.78814e-05Z" fill="var(--fill-0, #FF8104)"/>
<path id="Star 4" d="M25.7576 1.78814e-05L27.6852 5.9327H33.9232L28.8766 9.5993L30.8042 15.532L25.7576 11.8654L20.7109 15.532L22.6386 9.5993L17.5919 5.9327H23.8299L25.7576 1.78814e-05Z" fill="var(--fill-0, #FF8104)"/>
<path id="Star 5" d="M42.0707 1.78814e-05L43.9984 5.9327H50.2363L45.1897 9.5993L47.1173 15.532L42.0707 11.8654L37.0241 15.532L38.9517 9.5993L33.9051 5.9327H40.1431L42.0707 1.78814e-05Z" fill="var(--fill-0, #FF8104)"/>
<path id="Star 6" d="M59.2424 1.78814e-05L61.1701 5.9327H67.4081L62.3614 9.5993L64.2891 15.532L59.2424 11.8654L54.1958 15.532L56.1234 9.5993L51.0768 5.9327H57.3148L59.2424 1.78814e-05Z" fill="var(--fill-0, #FF8104)"/>
<path id="Star 7" d="M76.4141 1.78814e-05L78.3418 5.9327H84.5798L79.5331 9.5993L81.4608 15.532L76.4141 11.8654L71.3675 15.532L73.2951 9.5993L68.2485 5.9327H74.4865L76.4141 1.78814e-05Z" fill="var(--fill-0, #D9D9D9)"/>
</g>
</svg>
